<mxfile host="app.diagrams.net" modified="2021-10-04T06:23:44.775Z" agent="5.0 (X11; Linux x86_64) AppleWebKit/537.36 (KHTML, like Gecko) Chrome/93.0.4577.99 Safari/537.36" etag="q-0MqryhX69Lexbyvzsw" version="15.4.1" type="github">
  <diagram name="Page-1" id="e7e014a7-5840-1c2e-5031-d8a46d1fe8dd">
    <mxGraphModel dx="1382" dy="846" grid="1" gridSize="10" guides="1" tooltips="1" connect="1" arrows="1" fold="1" page="1" pageScale="1" pageWidth="1169" pageHeight="826" background="none" math="0" shadow="0">
      <root>
        <mxCell id="0" />
        <mxCell id="1" parent="0" />
        <mxCell id="2" value="Cyject Main" style="swimlane;whiteSpace=wrap" parent="1" vertex="1">
          <mxGeometry x="164.5" y="128" width="280" height="570" as="geometry" />
        </mxCell>
        <mxCell id="5" value="" style="ellipse;shape=startState;fillColor=#000000;strokeColor=#ff0000;" parent="2" vertex="1">
          <mxGeometry x="115.5" y="32" width="30" height="30" as="geometry" />
        </mxCell>
        <mxCell id="6" value="" style="edgeStyle=elbowEdgeStyle;elbow=horizontal;verticalAlign=bottom;endArrow=open;endSize=8;strokeColor=#FF0000;endFill=1;rounded=0" parent="2" source="5" target="7" edge="1">
          <mxGeometry x="100" y="40" as="geometry">
            <mxPoint x="115" y="110" as="targetPoint" />
          </mxGeometry>
        </mxCell>
        <mxCell id="7" value="Update Cyject Version" style="" parent="2" vertex="1">
          <mxGeometry x="70" y="110" width="130" height="50" as="geometry" />
        </mxCell>
        <mxCell id="8" value="Pull cyject-app-server&#xa;&quot;Should be next to cyject&#xa;./cyject-app-server&quot;" style="" parent="2" vertex="1">
          <mxGeometry x="65" y="202" width="140" height="50" as="geometry" />
        </mxCell>
        <mxCell id="9" value="" style="endArrow=open;strokeColor=#FF0000;endFill=1;rounded=0" parent="2" source="7" edge="1">
          <mxGeometry relative="1" as="geometry">
            <mxPoint x="135.5" y="202" as="targetPoint" />
          </mxGeometry>
        </mxCell>
        <mxCell id="10" value="use build script&#xa;&quot;npm run build:all&quot;" style="" parent="2" vertex="1">
          <mxGeometry x="80" y="295" width="110" height="50" as="geometry" />
        </mxCell>
        <mxCell id="11" value="" style="endArrow=open;strokeColor=#FF0000;endFill=1;rounded=0" parent="2" source="8" target="10" edge="1">
          <mxGeometry relative="1" as="geometry">
            <mxPoint x="135.5" y="292" as="targetPoint" />
          </mxGeometry>
        </mxCell>
        <mxCell id="rOMePL-SGuE0VWGix_lW-47" style="edgeStyle=orthogonalEdgeStyle;rounded=0;orthogonalLoop=1;jettySize=auto;html=1;exitX=0.5;exitY=1;exitDx=0;exitDy=0;" edge="1" parent="2" source="rOMePL-SGuE0VWGix_lW-41" target="rOMePL-SGuE0VWGix_lW-46">
          <mxGeometry relative="1" as="geometry" />
        </mxCell>
        <mxCell id="rOMePL-SGuE0VWGix_lW-41" value="push changes" style="" vertex="1" parent="2">
          <mxGeometry x="80" y="382" width="110" height="50" as="geometry" />
        </mxCell>
        <mxCell id="rOMePL-SGuE0VWGix_lW-42" value="" style="endArrow=open;strokeColor=#FF0000;endFill=1;rounded=0;exitX=0.5;exitY=1;exitDx=0;exitDy=0;entryX=0.5;entryY=0;entryDx=0;entryDy=0;" edge="1" parent="2" source="10" target="rOMePL-SGuE0VWGix_lW-41">
          <mxGeometry relative="1" as="geometry">
            <mxPoint x="124.5" y="375" as="sourcePoint" />
            <mxPoint x="124.5" y="430" as="targetPoint" />
          </mxGeometry>
        </mxCell>
        <mxCell id="rOMePL-SGuE0VWGix_lW-43" value="cyject-main" style="text;html=1;strokeColor=none;fillColor=none;align=center;verticalAlign=middle;whiteSpace=wrap;rounded=0;" vertex="1" parent="2">
          <mxGeometry x="5" y="270" width="65" height="30" as="geometry" />
        </mxCell>
        <mxCell id="rOMePL-SGuE0VWGix_lW-45" value="cyject-app-server" style="text;html=1;strokeColor=none;fillColor=none;align=center;verticalAlign=middle;whiteSpace=wrap;rounded=0;" vertex="1" parent="2">
          <mxGeometry y="352" width="95.5" height="30" as="geometry" />
        </mxCell>
        <mxCell id="rOMePL-SGuE0VWGix_lW-46" value="Add Tag from master" style="" vertex="1" parent="2">
          <mxGeometry x="75" y="472" width="120" height="50" as="geometry" />
        </mxCell>
        <mxCell id="3" value="DEV -- 192.168.5.72" style="swimlane;whiteSpace=wrap" parent="1" vertex="1">
          <mxGeometry x="444.5" y="128" width="280" height="570" as="geometry" />
        </mxCell>
        <mxCell id="rOMePL-SGuE0VWGix_lW-48" value="" style="edgeStyle=elbowEdgeStyle;elbow=horizontal;verticalAlign=bottom;endArrow=open;endSize=8;strokeColor=#FF0000;endFill=1;rounded=0;exitX=0.5;exitY=1;exitDx=0;exitDy=0;" edge="1" parent="3" target="rOMePL-SGuE0VWGix_lW-49" source="rOMePL-SGuE0VWGix_lW-58">
          <mxGeometry x="-59" y="-88" as="geometry">
            <mxPoint x="-44" y="-18" as="targetPoint" />
            <mxPoint x="136" y="62" as="sourcePoint" />
          </mxGeometry>
        </mxCell>
        <mxCell id="rOMePL-SGuE0VWGix_lW-49" value="get user for 192.168.5.72" style="" vertex="1" parent="3">
          <mxGeometry x="67.75" y="82" width="145.5" height="50" as="geometry" />
        </mxCell>
        <mxCell id="rOMePL-SGuE0VWGix_lW-51" value="" style="endArrow=open;strokeColor=#FF0000;endFill=1;rounded=0;startArrow=none;" edge="1" parent="3" source="rOMePL-SGuE0VWGix_lW-50">
          <mxGeometry relative="1" as="geometry">
            <mxPoint x="141" y="202" as="targetPoint" />
          </mxGeometry>
        </mxCell>
        <mxCell id="rOMePL-SGuE0VWGix_lW-52" value="sudo pm2 statusÂ &#xa;&quot;check status of running apps&quot;" style="" vertex="1" parent="3">
          <mxGeometry x="57.75" y="240" width="165.5" height="45" as="geometry" />
        </mxCell>
        <mxCell id="rOMePL-SGuE0VWGix_lW-53" value="" style="endArrow=open;strokeColor=#FF0000;endFill=1;rounded=0" edge="1" parent="3" source="rOMePL-SGuE0VWGix_lW-50" target="rOMePL-SGuE0VWGix_lW-52">
          <mxGeometry relative="1" as="geometry">
            <mxPoint x="-23.5" y="164" as="targetPoint" />
          </mxGeometry>
        </mxCell>
        <mxCell id="rOMePL-SGuE0VWGix_lW-55" value="cd /home/cyject/cyject-app-server" style="" vertex="1" parent="3">
          <mxGeometry x="46.5" y="312" width="188" height="50" as="geometry" />
        </mxCell>
        <mxCell id="rOMePL-SGuE0VWGix_lW-56" value="" style="endArrow=open;strokeColor=#FF0000;endFill=1;rounded=0;exitX=0.5;exitY=1;exitDx=0;exitDy=0;entryX=0.5;entryY=0;entryDx=0;entryDy=0;" edge="1" parent="3" source="rOMePL-SGuE0VWGix_lW-52" target="rOMePL-SGuE0VWGix_lW-55">
          <mxGeometry relative="1" as="geometry">
            <mxPoint x="-34.5" y="247" as="sourcePoint" />
            <mxPoint x="-34.5" y="302" as="targetPoint" />
          </mxGeometry>
        </mxCell>
        <mxCell id="rOMePL-SGuE0VWGix_lW-61" style="edgeStyle=orthogonalEdgeStyle;rounded=0;orthogonalLoop=1;jettySize=auto;html=1;exitX=0.5;exitY=1;exitDx=0;exitDy=0;entryX=0.5;entryY=0;entryDx=0;entryDy=0;" edge="1" parent="3" source="rOMePL-SGuE0VWGix_lW-57" target="rOMePL-SGuE0VWGix_lW-60">
          <mxGeometry relative="1" as="geometry" />
        </mxCell>
        <mxCell id="rOMePL-SGuE0VWGix_lW-57" value="sudo git pull" style="" vertex="1" parent="3">
          <mxGeometry x="80.5" y="382" width="120" height="38" as="geometry" />
        </mxCell>
        <mxCell id="rOMePL-SGuE0VWGix_lW-54" style="edgeStyle=orthogonalEdgeStyle;rounded=0;orthogonalLoop=1;jettySize=auto;html=1;exitX=0.5;exitY=1;exitDx=0;exitDy=0;" edge="1" parent="3" source="rOMePL-SGuE0VWGix_lW-55" target="rOMePL-SGuE0VWGix_lW-57">
          <mxGeometry relative="1" as="geometry" />
        </mxCell>
        <mxCell id="rOMePL-SGuE0VWGix_lW-58" value="" style="ellipse;shape=startState;fillColor=#000000;strokeColor=#ff0000;" vertex="1" parent="3">
          <mxGeometry x="125.5" y="32" width="30" height="30" as="geometry" />
        </mxCell>
        <mxCell id="rOMePL-SGuE0VWGix_lW-50" value="ssh username@192.168.5.72" style="" vertex="1" parent="3">
          <mxGeometry x="60.25" y="162" width="160.5" height="50" as="geometry" />
        </mxCell>
        <mxCell id="rOMePL-SGuE0VWGix_lW-59" value="" style="endArrow=none;strokeColor=#FF0000;endFill=1;rounded=0;entryX=0.5;entryY=0;entryDx=0;entryDy=0;" edge="1" parent="3" source="rOMePL-SGuE0VWGix_lW-49" target="rOMePL-SGuE0VWGix_lW-50">
          <mxGeometry relative="1" as="geometry">
            <mxPoint x="140.5" y="172" as="targetPoint" />
            <mxPoint x="585.1315789473683" y="260" as="sourcePoint" />
          </mxGeometry>
        </mxCell>
        <mxCell id="rOMePL-SGuE0VWGix_lW-60" value="remove index.html.def&#xa;&quot;sudo rm serverIndex/development/index.html.def&quot;" style="" vertex="1" parent="3">
          <mxGeometry x="7.5" y="442" width="264.5" height="38" as="geometry" />
        </mxCell>
        <mxCell id="4" value="TEST -- 192.168.4.111&#xa;PROD -- 192.168.15.83" style="swimlane;whiteSpace=wrap;startSize=32;" parent="1" vertex="1">
          <mxGeometry x="724.5" y="128" width="280" height="570" as="geometry" />
        </mxCell>
        <mxCell id="rOMePL-SGuE0VWGix_lW-64" style="edgeStyle=orthogonalEdgeStyle;rounded=0;orthogonalLoop=1;jettySize=auto;html=1;exitX=0.5;exitY=1;exitDx=0;exitDy=0;" edge="1" parent="4" source="rOMePL-SGuE0VWGix_lW-62" target="rOMePL-SGuE0VWGix_lW-63">
          <mxGeometry relative="1" as="geometry" />
        </mxCell>
        <mxCell id="rOMePL-SGuE0VWGix_lW-62" value="" style="ellipse;shape=startState;fillColor=#000000;strokeColor=#ff0000;" vertex="1" parent="4">
          <mxGeometry x="125" y="52" width="30" height="30" as="geometry" />
        </mxCell>
        <mxCell id="rOMePL-SGuE0VWGix_lW-66" style="edgeStyle=orthogonalEdgeStyle;rounded=0;orthogonalLoop=1;jettySize=auto;html=1;exitX=0.5;exitY=1;exitDx=0;exitDy=0;entryX=0.5;entryY=0;entryDx=0;entryDy=0;" edge="1" parent="4" source="rOMePL-SGuE0VWGix_lW-63" target="rOMePL-SGuE0VWGix_lW-65">
          <mxGeometry relative="1" as="geometry" />
        </mxCell>
        <mxCell id="rOMePL-SGuE0VWGix_lW-63" value="create issue for devops" style="" vertex="1" parent="4">
          <mxGeometry x="67.25" y="110" width="145.5" height="50" as="geometry" />
        </mxCell>
        <mxCell id="rOMePL-SGuE0VWGix_lW-65" value="add enviroment and tag" style="" vertex="1" parent="4">
          <mxGeometry x="67.25" y="192" width="145.5" height="50" as="geometry" />
        </mxCell>
        <mxCell id="rOMePL-SGuE0VWGix_lW-68" value="&lt;font style=&quot;font-size: 36px&quot; color=&quot;#009900&quot;&gt;CYJECT DEPLOYMENT&lt;/font&gt;" style="text;html=1;strokeColor=none;fillColor=none;align=center;verticalAlign=middle;whiteSpace=wrap;rounded=0;" vertex="1" parent="1">
          <mxGeometry x="370" y="20" width="440" height="50" as="geometry" />
        </mxCell>
      </root>
    </mxGraphModel>
  </diagram>
</mxfile>
